<svg version="1.2" xmlns="http://www.w3.org/2000/svg" viewBox="0 0 1614 200" width="1614" height="200">
	<style>
		.s0 { fill: #ffffff } 
	</style>
	<g>
		<g>
			<g>
				<path class="s0" d="m31.61 181.8q7.38-1.85 10.28-7.4 2.91-5.54 3.7-12.67 0.79-7.12 1.07-12.93 0.51-6.34 3.41-11.09 2.92-4.75 7.15-5.02 4.23-0.27 8.19 7.4 4.2 8.19 9.48 15.71 5.28 7.52 11.89 13.85 10.29 9.77 17.69 10.17 7.39 0.39 11.21-5.55 3.83-5.93 3.31-15.16-0.52-9.25-6.06-18.77-1.34-2.63-4.38-6.46-3.02-3.83-5.79-7.92-2.77-4.1-3.56-7.79-0.8-3.69 1.83-6.06 6.08-5.02 10.56-11.23 4.5-6.2 7.67-13.06 8.7-19.02 5.94-33.15-2.77-14.12-13.34-23.48-10.56-9.37-25.87-14.25-15.32-4.89-32.08-5.29-16.75-0.39-31.82 3.56-1.31 0.27-0.25 0.27-7.92 1.32-11.35 8.04-3.44 6.74-3.83 16.11-0.4 9.38 0.27 18.48 0.66 9.11 0.91 15.19 0.79 23.5 0.27 47-0.52 23.48 1.32 46.7 0.54 9.78 6.87 13.34 6.33 3.56 15.31 1.46zm17.94-70.75q0.27-3.17 0.27-10.3 0-7.12 0.52-14.77 0.54-7.66 2.25-13.21 1.71-5.56 5.15-5.81 6.08-0.54 13.46-1.19 7.39-0.66 12.41 3.57 5.02 4.21 3.84 9.37-1.19 5.15-6.09 10.44-4.87 5.27-11.35 9.9-6.46 4.6-12.27 7.77-5.81 3.17-8.19 4.23z"/>
			</g>
		</g>
	</g>
	<g>
		<g>
			<g>
				<path class="s0" d="m131.67 184.69q2.89 8.98 6.73 10.29 3.83 1.33 8.04-2.23 4.23-3.56 8.06-9.25 3.83-5.66 6.61-11.08 2.76-5.41 3.81-7.79 1.85-4.48 8.58-6.58 6.73-2.13 15.17-2.13 8.45 0 15.85 1.46 7.4 1.46 10.84 3.83 2.62 1.84 5.79 6.19 3.19 4.36 6.75 8.73 3.56 4.36 7.12 6.46 3.56 2.1 6.98-0.27 3.44-2.38 6.36-11.61 1.83-5.54 1.16-17.41-0.65-11.9-3.29-27.46-2.62-15.58-6.73-31.82-4.08-16.24-9.23-30.77-5.14-14.51-10.83-24.54-5.67-10.04-11.48-12.66-5.81-2.4-11.89 2.77-6.07 5.15-12.15 15.04-6.06 9.9-11.48 21.91-5.4 12-10.02 23.75-4.63 11.76-7.67 20.46-3.02 8.71-4.35 11.63-2.38 5.81-6.21 13.87-3.81 8.05-7.52 17.02-3.69 8.97-5.42 17.42-1.7 8.44 0.42 14.77zm56.48-57.02q-7.13 0.27-7.92-3.29-0.79-3.56 2.11-8.83 2.91-5.29 6.87-10.17 3.96-4.89 6.34-7 0.78 0.79 2.77 3.83 1.97 3.03 3.56 7.13 1.58 4.08 1.31 8.18-0.25 4.09-3.56 6.86-3.3 2.77-11.48 3.29z"/>
			</g>
		</g>
	</g>
	<g>
		<g>
			<g>
				<path class="s0" d="m286.38 182.32q4.2-0.25 3.68-0.25-0.52 0-2.37 0.27-1.86 0.25-2.25 0.25-0.4 0 3.56-0.27-4.21 0.27-1.71 0.39 2.5 0.14 9.63-0.52 7.14-0.66 16.37-2.64 9.25-1.98 18.61-5.8 9.37-3.83 16.62-9.89 7.27-6.08 9.92-15.06 2.1-7.13-1.34-10.82-3.42-3.7-10.29-4.89-6.85-1.19-14.91-0.92-8.05 0.25-14.92 1.04-6.86 0.8-10.54 1.06 1.58-24.81 4.87-50.02 3.31-25.2 1.46-50.04-0.54-7.37-5.17-12.52-4.6-5.16-11.08-7.27-6.46-2.1-13.46-0.79-7 1.31-12.27 7.12-4.75 5.03-6.6 14.4-1.86 9.38-1.73 20.73 0.14 11.33 1.33 23.08 1.19 11.75 2.38 21.92 1.18 10.17 1.18 16.77 0.27 5.27-0.39 13.73-0.65 8.44-0.79 17.56-0.13 9.11 1.31 17.02 1.45 7.92 5.94 12.67 4.5 4.75 12.96 3.69z"/>
			</g>
		</g>
	</g>
	<g>
		<g>
			<g>
				<path class="s0" d="m425.5 182.07q8.7-1.86 12.14-7.92 3.44-6.08 3.96-14.4 0.52-8.31 0-17.41-0.52-9.13 0-17.17 0.52-8.06 3.96-13.33 2.37-4.5 7.25-10.96 4.89-6.45 10.17-14.25 5.29-7.79 9.5-15.44 4.22-7.66 5.54-14.27 1.33-6.6-2.36-10.81-6.08-7.39-11.89-8.06-5.8-0.67-11.09 3.31-5.27 3.96-9.89 10.29-4.63 6.34-8.46 12.94-3.81 6.58-6.73 11.08-1.04-2.37-4.23-8.83-3.17-6.48-7.64-14.52-4.49-8.06-9.9-15.46-5.42-7.39-10.96-12-5.54-4.62-10.83-4.23-5.27 0.4-9.75 8.58-3.44 6.07-1.61 14.65 1.86 8.59 6.61 18.35 4.75 9.75 10.42 19.52 5.68 9.78 10.43 18.5 4.75 8.71 6.09 14.77 1.31 4.76 0.39 12.15-0.92 7.4-2.37 15.71-1.46 8.31-2.13 16.1-0.65 7.8 1.06 13.73 1.71 5.94 6.86 8.71 5.16 2.77 15.46 0.67z"/>
			</g>
		</g>
	</g>
	<g>
		<g>
			<g>
				<path class="s0" d="m476.19 184.69q2.89 8.98 6.73 10.29 3.83 1.33 8.04-2.23 4.23-3.56 8.06-9.25 3.83-5.66 6.61-11.08 2.76-5.41 3.81-7.79 1.85-4.48 8.58-6.58 6.73-2.13 15.17-2.13 8.45 0 15.85 1.46 7.4 1.46 10.84 3.83 2.62 1.84 5.79 6.19 3.19 4.36 6.75 8.73 3.56 4.36 7.12 6.46 3.56 2.1 6.98-0.27 3.44-2.38 6.36-11.61 1.83-5.54 1.16-17.41-0.65-11.9-3.29-27.46-2.62-15.58-6.73-31.82-4.08-16.24-9.23-30.77-5.14-14.51-10.83-24.54-5.67-10.04-11.48-12.66-5.81-2.4-11.89 2.77-6.07 5.15-12.15 15.04-6.06 9.9-11.48 21.91-5.4 12-10.02 23.75-4.63 11.76-7.67 20.46-3.02 8.71-4.35 11.63-2.38 5.81-6.21 13.87-3.81 8.05-7.52 17.02-3.69 8.97-5.42 17.42-1.7 8.44 0.42 14.77zm56.48-57.02q-7.13 0.27-7.92-3.29-0.79-3.56 2.11-8.83 2.91-5.29 6.87-10.17 3.96-4.89 6.33-7 0.79 0.79 2.78 3.83 1.97 3.03 3.56 7.13 1.58 4.08 1.31 8.18-0.25 4.09-3.56 6.86-3.3 2.77-11.48 3.29z"/>
			</g>
		</g>
	</g>
	<g>
		<g>
			<g>
			</g>
		</g>
	</g>
	<g>
		<g>
			<g>
				<path class="s0" d="m710.62 182.07q6.06-1.07 8.71-5.82 2.64-4.74 3.29-11.35 0.66-6.6 0.4-13.06-0.25-6.48-0.25-10.71 0-1.58 5.54-2.63 5.54-1.06 13.06-1.58 7.52-0.54 13.73-0.67 6.21-0.12 7.52-0.12 0 3.69-0.54 10.17-0.52 6.46-0.25 13.45 0.27 7.01 2.25 12.55 1.98 5.54 6.73 7.12 7.91 2.9 16.23 0.13 8.31-2.77 10.69-11.21 4.76-17.17 6.2-35.9 1.46-18.75 1.86-37.89 0.39-19.15 1.71-36.84 0.26-4.22 0.91-11.08 0.67-6.88 0.15-14.13-0.53-7.26-3.17-12.66-2.64-5.42-8.71-6.73-4.5-1.06-10.7-1.06-6.19 0-11.88 1.58-5.67 1.58-8.83 5.81-4.75 6.34-5.94 16.9-1.19 10.56-0.27 22.43 0.91 11.88 2.37 22.84 1.46 10.96 2.25 18.08-7.66 0-11.22 0-3.57 0-6.21 0-2.63 0-6.61 0-3.96 0-12.39 0.27 0.26-15.58 2.37-31.02 2.1-15.45 4.23-30.77 1.31-8.44-1.6-11.33-2.9-2.92-8.32-3.04-5.4-0.15-11.72 0.64-8.47 0.8-14.67 2.13-6.19 1.31-9.11 5.93-2.9 4.63-2.1 14.92 1.31 15.59 2.38 31.17 1.06 15.56 1.85 31.14 0.25 5.01-0.54 14.52-0.8 9.5-1.19 20.07-0.4 10.54 1.19 19.91 1.58 9.38 6.33 14.52 4.75 5.15 14.27 3.32z"/>
			</g>
		</g>
	</g>
	<g>
		<g>
			<g>
				<path class="s0" d="m912.84 168.86q9.77-9.5 17.02-24.94 7.27-15.46 11.08-33.15 3.83-17.68 3.71-34.58-0.13-16.89-5.14-29.56-0.01-2.1-2.78-7.65-2.77-5.56-8.31-12.02-5.54-6.47-13.87-11.08-8.32-4.62-19.27-5.02-10.96-0.39-24.94 6.21-14.52 6.85-24.83 18.48-10.3 11.6-16.11 26.27-5.8 14.65-7.12 30.35-1.32 15.71 1.85 30.75 2.64 11.36 8.85 22.71 6.21 11.36 15.17 20.46 8.98 9.1 19.67 13.6 10.7 4.48 22.19 2.38 11.47-2.13 22.83-13.21zm-37.48-14.25q-7.67-3.17-11.1-10.42-3.43-7.26-3.69-16.25-0.28-8.98 1.31-17.56 1.58-8.58 3.96-14.38 1.85-5.01 5.29-11.23 3.44-6.2 8.19-11.35 4.75-5.14 10.54-6.85 5.81-1.73 12.42 2.23 6.6 3.71 8.98 12.16 2.37 8.44 1.58 19.27-0.8 10.82-4.11 21.65-3.29 10.81-8.43 19.27-5.15 8.44-11.63 12.4-6.46 3.96-13.31 1.06z"/>
			</g>
		</g>
	</g>
	<g>
		<g>
			<g>
				<path class="s0" d="m981.22 182.32q4.2-0.25 3.69-0.25-0.52 0-2.38 0.27-1.86 0.25-2.25 0.25-0.39 0 3.57-0.27-4.21 0.27-1.71 0.39 2.5 0.14 9.62-0.52 7.14-0.66 16.38-2.64 9.25-1.98 18.6-5.8 9.38-3.83 16.63-9.89 7.26-6.08 9.91-15.06 2.11-7.13-1.33-10.82-3.42-3.7-10.29-4.89-6.86-1.19-14.92-0.92-8.04 0.25-14.91 1.04-6.86 0.8-10.55 1.06 1.58-24.81 4.88-50.02 3.31-25.2 1.46-50.04-0.55-7.37-5.17-12.52-4.61-5.16-11.08-7.27-6.46-2.1-13.46-0.79-7 1.31-12.27 7.12-4.75 5.03-6.61 14.4-1.85 9.38-1.72 20.73 0.14 11.33 1.33 23.08 1.19 11.75 2.37 21.92 1.19 10.17 1.19 16.77 0.27 5.27-0.39 13.73-0.65 8.44-0.8 17.56-0.12 9.11 1.32 17.02 1.45 7.92 5.93 12.67 4.5 4.75 12.96 3.69z"/>
			</g>
		</g>
	</g>
	<g>
		<g>
			<g>
				<path class="s0" d="m1071.76 175.98q1.85 4.5 6.21 5.82 4.35 1.31 9.5 0.39 5.14-0.91 9.37-3.42 4.23-2.51 5.82-5.68 3.95-7.92 4.87-17.02 0.94-9.13 1.06-18.63 0.13-9.5 0.67-17.69 0.25-4.22 1.71-12.93 1.45-8.71 2.89-20.07 1.46-11.35 2.38-23.23 0.94-11.87 0.27-22.43-0.67-10.57-3.71-17.82-3.02-7.26-9.35-8.85-14-3.95-21.79-0.25-7.78 3.69-10.94 12.27-3.17 8.57-3.44 19.52-0.27 10.96 0.52 21.92 0.79 10.96 1.06 19.14 0.27 9.78-0.39 21.8-0.67 12-1.06 24.54-0.4 12.54 0.39 23.62 0.79 11.09 3.96 19z"/>
			</g>
		</g>
	</g>
	<g>
		<g>
			<g>
				<path class="s0" d="m1152.82 182.32q15.31-1.58 28.5-9.9 13.21-8.31 23.77-19.15 9.23-9.75 18.46-22.81 9.25-13.08 15.31-27.73 6.08-14.66 6.48-29.71 0.39-15.03-7.79-28.5-7.13-11.62-18.48-17.68-11.34-6.08-24.81-7.92-13.46-1.85-27.07-0.79-13.58 1.05-25.2 3.69-7.65 1.04-11.61 9.5-3.96 8.44-5.16 20.98-1.19 12.54-0.8 26.41 0.42 13.86 1.21 26 0.79 12.15 1.04 19.52 0.27 6.36-0.12 14.42-0.4 8.04 0.12 16.1 0.54 8.05 3.05 14.77 2.49 6.74 7.91 10.3 5.42 3.56 15.19 2.5zm22.96-45.15q-4.49 3.44-6.46 1.21-1.98-2.25-2.25-7.79-0.27-5.54 0.25-12.15 0.54-6.6 1.33-12.54 0.79-5.94 1.07-8.85 0.51-7.92 0.25-14.92-0.26-7 0.79-12.4 1.06-5.41 5.14-8.71 4.11-3.31 13.61-4.1 10.29-0.79 17.93 2.77 7.67 3.57 10.71 10.83 3.04 7.25-0.66 17.82-3.17 8.18-9.11 16.25-5.94 8.04-12.66 14.91-6.74 6.86-12.28 11.48-5.54 4.61-7.66 6.19z"/>
			</g>
		</g>
	</g>
	<g>
		<g>
			<g>
				<path class="s0" d="m1243.37 184.69q2.89 8.98 6.73 10.29 3.83 1.33 8.04-2.23 4.23-3.56 8.07-9.25 3.83-5.66 6.6-11.08 2.77-5.41 3.81-7.79 1.85-4.48 8.59-6.58 6.72-2.13 15.16-2.13 8.46 0 15.86 1.46 7.39 1.46 10.83 3.83 2.62 1.84 5.79 6.19 3.19 4.36 6.75 8.73 3.56 4.36 7.13 6.46 3.56 2.1 6.98-0.27 3.43-2.38 6.35-11.61 1.83-5.54 1.17-17.41-0.65-11.9-3.3-27.46-2.62-15.58-6.72-31.82-4.09-16.24-9.23-30.77-5.15-14.51-10.84-24.54-5.67-10.04-11.48-12.66-5.81-2.4-11.89 2.77-6.07 5.15-12.15 15.04-6.06 9.9-11.48 21.91-5.39 12-10.02 23.75-4.62 11.76-7.66 20.46-3.03 8.71-4.36 11.63-2.38 5.81-6.21 13.87-3.81 8.05-7.52 17.02-3.69 8.97-5.41 17.42-1.71 8.44 0.41 14.77zm56.48-57.02q-7.12 0.27-7.92-3.29-0.79-3.56 2.11-8.83 2.91-5.29 6.87-10.17 3.96-4.89 6.34-7 0.79 0.79 2.77 3.83 1.97 3.03 3.56 7.13 1.58 4.08 1.31 8.18-0.25 4.09-3.56 6.86-3.29 2.77-11.48 3.29z"/>
			</g>
		</g>
	</g>
	<g>
		<g>
			<g>
				<path class="s0" d="m1427.64 182.07q8.71-1.86 12.15-7.92 3.43-6.08 3.95-14.4 0.52-8.31 0-17.41-0.52-9.13 0-17.17 0.52-8.06 3.96-13.33 2.38-4.5 7.25-10.96 4.89-6.45 10.17-14.25 5.29-7.79 9.5-15.44 4.23-7.66 5.54-14.27 1.33-6.6-2.35-10.81-6.09-7.39-11.9-8.06-5.8-0.67-11.08 3.31-5.27 3.96-9.9 10.29-4.63 6.34-8.46 12.94-3.81 6.58-6.73 11.08-1.04-2.37-4.23-8.83-3.17-6.48-7.64-14.52-4.48-8.06-9.9-15.46-5.42-7.39-10.96-12-5.54-4.62-10.83-4.23-5.27 0.4-9.75 8.58-3.44 6.07-1.6 14.65 1.85 8.59 6.6 18.35 4.75 9.75 10.42 19.52 5.69 9.78 10.44 18.5 4.74 8.71 6.08 14.77 1.31 4.76 0.39 12.15-0.92 7.4-2.37 15.71-1.46 8.31-2.13 16.1-0.64 7.8 1.07 13.73 1.7 5.94 6.85 8.71 5.16 2.77 15.46 0.67z"/>
			</g>
		</g>
	</g>
	<g>
		<g>
			<g>
				<path class="s0" d="m1499.19 172.3q10.01 5.54 23.62 8.31 13.6 2.77 27.71 1.85 14.12-0.93 26.27-6.21 12.14-5.28 19.27-15.58 7.94-11.35 6.21-20.46-1.71-9.1-9.38-16.5-7.64-7.39-18.08-13.33-10.42-5.94-20.73-10.69-10.29-4.75-16.87-8.98-7.4-4.75-10.32-11.87-2.89-7.13 0.13-13.34 3.04-6.2 13.35-8.06 5.79-1.04 9.63 2 3.83 3.02 6.33 7.65 2.52 4.62 4.36 8.98 1.85 4.35 3.43 6.45 3.17 6.34 9.23 8.07 6.08 1.71 12.82-0.4 6.72-2.12 11.75-7.12 5.01-5.02 6.6-12.27 1.58-7.27-2.65-15.98-8.19-16.9-22.98-26.92-14.77-10.04-32.45-11.35-17.69-1.34-34.86 8.16-13.46 7.4-19.79 18.63-6.34 11.21-5.94 23.5 0.39 12.27 6.98 23.35 6.6 11.09 19.02 18.21 9.5 5.55 20.46 10.69 10.96 5.15 18.08 13.87 5.29 6.59 4.5 12.79-0.79 6.21-6.08 9.13-5.27 2.9-13.46-0.02-4.75-1.83-10.04-5.92-5.27-4.1-10.96-7.94-5.67-3.83-11.35-5.02-5.67-1.18-11.21 3.32-6.61 5.27-6.6 11.75-0.01 6.46 4.08 12.14 4.1 5.67 9.92 9.11z"/>
			</g>
		</g>
	</g>
	<g>
		<g>
			<g>
			</g>
		</g>
	</g>
</svg>